# xmcd CD database file
#
# Track frame offsets:
#	150
#	19900
#	41855
#	60175
#	79330
#	100587
#	121232
#
# Disc length: 1868 seconds
#
# Revision: 0
# Processed by: cddbd v1.5.1PL0 Copyright (c) Steve Scherf et al.
# Submitted via: CDex 1.51
#
DISCID=4f074a07
DTITLE=ART-SCHOOL - スカーレット
DYEAR=1900
DGENRE=Rock
TTITLE0=スカーレット
TTITLE1=Rain Song
TTITLE2=クロエ
TTITLE3=Tarantula
TTITLE4=1995
TTITLE5=Apart
TTITLE6=君は僕の物だった
EXTD=
EXTT0=
EXTT1=
EXTT2=
EXTT3=
EXTT4=
EXTT5=
EXTT6=
PLAYORDER=
